REM DIRINDEX 1\8,1\2\11,1\3\12,1\3\14,1\5\15,1\5\16,1\6\17,1\6\18,1\4\19,1\4\20,1\4\21,1\4\22,1\7\23,1\7\24,1\7\25,1\2\9\26,1\2\9\27,1\2\10\28,1\2\10\29,1\2\10\30,1\2\10\31,1\2\10\32,1\3\13\33,1\3\13\34,1\3\13\35
REM DIRNAME folder01,folder02,folder03,folder04,folder05,folder06,folder07,folder08,folder09,folder10,folder11,folder12,folder13,folder14,folder15,folder16,folder17,folder18,folder19,folder20,folder21,folder22,folder23,folder24,folder25,folder26,folder27,folder28,folder29,folder30,folder31,folder32,folder33,folder34,folder35
TITLE ""
FILE "126 126_例文UNIT1_SET4.mp3" MP3
  TRACK 01 AUDIO
    TITLE "22:cjc123_2774"
    INDEX 01 00:00:00
  TRACK 02 AUDIO
    TITLE "0:"
    INDEX 01 00:02:40
  TRACK 03 AUDIO
    TITLE "19:cjc123_2775"
    INDEX 01 00:03:23
  TRACK 04 AUDIO
    TITLE "0:"
    INDEX 01 00:06:51
  TRACK 05 AUDIO
    TITLE "20:cjc123_2776"
    INDEX 01 00:07:02
  TRACK 06 AUDIO
    TITLE "0:"
    INDEX 01 00:09:53
  TRACK 07 AUDIO
    TITLE "21:cjc123_2777"
    INDEX 01 00:10:06
  TRACK 08 AUDIO
    TITLE "0:"
    INDEX 01 00:13:33
  TRACK 09 AUDIO
    TITLE "19:cjc123_2778"
    INDEX 01 00:14:23
  TRACK 10 AUDIO
    TITLE "0:"
    INDEX 01 00:18:01
  TRACK 11 AUDIO
    TITLE "20:cjc123_2779"
    INDEX 01 00:18:44
  TRACK 12 AUDIO
    TITLE "0:"
    INDEX 01 00:22:19
  TRACK 13 AUDIO
    TITLE "21:cjc123_2780"
    INDEX 01 00:22:48
  TRACK 14 AUDIO
    TITLE "0:"
    INDEX 01 00:26:26
  TRACK 15 AUDIO
    TITLE "19:cjc123_2781"
    INDEX 01 00:27:14
  TRACK 16 AUDIO
    TITLE "0:"
    INDEX 01 00:30:01
  TRACK 17 AUDIO
    TITLE "20:cjc123_2782"
    INDEX 01 00:30:36
  TRACK 18 AUDIO
    TITLE "0:"
    INDEX 01 00:33:44
  TRACK 19 AUDIO
    TITLE "21:cjc123_2783"
    INDEX 01 00:33:68
  TRACK 20 AUDIO
    TITLE "0:"
    INDEX 01 00:36:54
  TRACK 21 AUDIO
    TITLE "19:cjc123_2784"
    INDEX 01 00:37:38
  TRACK 22 AUDIO
    TITLE "0:"
    INDEX 01 00:40:30
  TRACK 23 AUDIO
    TITLE "20:cjc123_2785"
    INDEX 01 00:40:62
  TRACK 24 AUDIO
    TITLE "0:"
    INDEX 01 00:43:31
  TRACK 25 AUDIO
    TITLE "21:cjc123_2786"
    INDEX 01 00:43:58
  TRACK 26 AUDIO
    TITLE "0:"
    INDEX 01 00:46:49
  TRACK 27 AUDIO
    TITLE "19:cjc123_2787"
    INDEX 01 00:47:44
  TRACK 28 AUDIO
    TITLE "0:"
    INDEX 01 00:50:09
  TRACK 29 AUDIO
    TITLE "20:cjc123_2788"
    INDEX 01 00:50:64
  TRACK 30 AUDIO
    TITLE "0:"
    INDEX 01 00:53:39
  TRACK 31 AUDIO
    TITLE "21:cjc123_2789"
    INDEX 01 00:53:70
  TRACK 32 AUDIO
    TITLE "0:"
    INDEX 01 00:56:35
  TRACK 33 AUDIO
    TITLE "19:cjc123_2790"
    INDEX 01 00:57:29
  TRACK 34 AUDIO
    TITLE "0:"
    INDEX 01 01:00:21
  TRACK 35 AUDIO
    TITLE "20:cjc123_2791"
    INDEX 01 01:00:45
  TRACK 36 AUDIO
    TITLE "0:"
    INDEX 01 01:03:27
  TRACK 37 AUDIO
    TITLE "21:cjc123_2792"
    INDEX 01 01:03:55
  TRACK 38 AUDIO
    TITLE "0:"
    INDEX 01 01:06:45
  TRACK 39 AUDIO
    TITLE "19:cjc123_2793"
    INDEX 01 01:07:25
  TRACK 40 AUDIO
    TITLE "0:"
    INDEX 01 01:10:33
  TRACK 41 AUDIO
    TITLE "20:cjc123_2794"
    INDEX 01 01:11:02
  TRACK 42 AUDIO
    TITLE "0:"
    INDEX 01 01:14:00
  TRACK 43 AUDIO
    TITLE "21:cjc123_2795"
    INDEX 01 01:14:29
  TRACK 44 AUDIO
    TITLE "0:"
    INDEX 01 01:17:35
  TRACK 45 AUDIO
    TITLE "19:cjc123_2796"
    INDEX 01 01:18:49
  TRACK 46 AUDIO
    TITLE "0:"
    INDEX 01 01:21:23
  TRACK 47 AUDIO
    TITLE "20:cjc123_2797"
    INDEX 01 01:21:70
  TRACK 48 AUDIO
    TITLE "0:"
    INDEX 01 01:24:61
  TRACK 49 AUDIO
    TITLE "21:cjc123_2798"
    INDEX 01 01:25:15
  TRACK 50 AUDIO
    TITLE "0:"
    INDEX 01 01:27:65
  TRACK 51 AUDIO
    TITLE "19:cjc123_2799"
    INDEX 01 01:28:39
  TRACK 52 AUDIO
    TITLE "0:"
    INDEX 01 01:32:15
  TRACK 53 AUDIO
    TITLE "20:cjc123_2800"
    INDEX 01 01:32:43
  TRACK 54 AUDIO
    TITLE "0:"
    INDEX 01 01:36:05
  TRACK 55 AUDIO
    TITLE "21:cjc123_2801"
    INDEX 01 01:36:33
  TRACK 56 AUDIO
    TITLE "0:"
    INDEX 01 01:40:09
  TRACK 57 AUDIO
    TITLE "19:cjc123_2802"
    INDEX 01 01:40:66
  TRACK 58 AUDIO
    TITLE "0:"
    INDEX 01 01:43:19
  TRACK 59 AUDIO
    TITLE "20:cjc123_2803"
    INDEX 01 01:43:43
  TRACK 60 AUDIO
    TITLE "0:"
    INDEX 01 01:46:10
  TRACK 61 AUDIO
    TITLE "21:cjc123_2804"
    INDEX 01 01:46:41
  TRACK 62 AUDIO
    TITLE "0:"
    INDEX 01 01:48:69
  TRACK 63 AUDIO
    TITLE "19:cjc123_2805"
    INDEX 01 01:49:51
  TRACK 64 AUDIO
    TITLE "0:"
    INDEX 01 01:52:38
  TRACK 65 AUDIO
    TITLE "20:cjc123_2806"
    INDEX 01 01:53:02
  TRACK 66 AUDIO
    TITLE "0:"
    INDEX 01 01:56:08
  TRACK 67 AUDIO
    TITLE "21:cjc123_2807"
    INDEX 01 01:56:36
  TRACK 68 AUDIO
    TITLE "0:"
    INDEX 01 01:59:24
  TRACK 69 AUDIO
    TITLE "19:cjc123_2808"
    INDEX 01 02:00:04
  TRACK 70 AUDIO
    TITLE "0:"
    INDEX 01 02:02:56
  TRACK 71 AUDIO
    TITLE "20:cjc123_2809"
    INDEX 01 02:03:20
  TRACK 72 AUDIO
    TITLE "0:"
    INDEX 01 02:06:05
  TRACK 73 AUDIO
    TITLE "21:cjc123_2810"
    INDEX 01 02:06:36
  TRACK 74 AUDIO
    TITLE "0:"
    INDEX 01 02:09:13
  TRACK 75 AUDIO
    TITLE "19:cjc123_2811"
    INDEX 01 02:09:66
  TRACK 76 AUDIO
    TITLE "0:"
    INDEX 01 02:12:50
  TRACK 77 AUDIO
    TITLE "20:cjc123_2812"
    INDEX 01 02:13:18
  TRACK 78 AUDIO
    TITLE "0:"
    INDEX 01 02:16:05
  TRACK 79 AUDIO
    TITLE "21:cjc123_2813"
    INDEX 01 02:16:32
  TRACK 80 AUDIO
    TITLE "0:"
    INDEX 01 02:19:17
  TRACK 81 AUDIO
    TITLE "19:cjc123_2814"
    INDEX 01 02:20:01
  TRACK 82 AUDIO
    TITLE "0:"
    INDEX 01 02:23:01
  TRACK 83 AUDIO
    TITLE "20:cjc123_2815"
    INDEX 01 02:23:42
  TRACK 84 AUDIO
    TITLE "0:"
    INDEX 01 02:26:56
  TRACK 85 AUDIO
    TITLE "21:cjc123_2816"
    INDEX 01 02:27:11
  TRACK 86 AUDIO
    TITLE "0:"
    INDEX 01 02:30:11
  TRACK 87 AUDIO
    TITLE "19:cjc123_2817"
    INDEX 01 02:31:06
  TRACK 88 AUDIO
    TITLE "0:"
    INDEX 01 02:35:16
  TRACK 89 AUDIO
    TITLE "20:cjc123_2818"
    INDEX 01 02:35:55
  TRACK 90 AUDIO
    TITLE "0:"
    INDEX 01 02:38:59
  TRACK 91 AUDIO
    TITLE "21:cjc123_2819"
    INDEX 01 02:39:16
  TRACK 92 AUDIO
    TITLE "0:"
    INDEX 01 02:43:25
